<svg xmlns="http://www.w3.org/2000/svg" xmlns:xlink="http://www.w3.org/1999/xlink" width="2000" zoomAndPan="magnify" viewBox="0 0 1500 1499.999933" height="2000" preserveAspectRatio="xMidYMid meet" version="1.0"><defs><g/></defs><g fill="#7046c3" fill-opacity="1"><g transform="translate(188.83513, 1080.201537)"><g><path d="M 24.203125 0 L 224.8125 -570.65625 L 339.8125 -570.65625 L 540.390625 0 L 455.671875 0 L 287.9375 -504.09375 L 277.546875 -504.09375 L 109.8125 0 Z M 119.328125 -127.96875 L 119.328125 -188.5 L 455.671875 -188.5 L 455.671875 -127.96875 Z M 119.328125 -127.96875 "/></g></g></g><g fill="#7046c3" fill-opacity="1"><g transform="translate(753.457138, 1080.201537)"><g><path d="M 71.765625 0 L 71.765625 -570.65625 L 270.640625 -570.65625 C 298.304688 -570.65625 323.957031 -568.347656 347.59375 -563.734375 C 371.226562 -559.128906 392.410156 -552.503906 411.140625 -543.859375 C 429.878906 -535.210938 445.875 -524.117188 459.125 -510.578125 C 472.382812 -497.035156 482.472656 -481.472656 489.390625 -463.890625 C 496.304688 -446.304688 499.765625 -426.273438 499.765625 -403.796875 C 499.765625 -384.191406 496.738281 -366.03125 490.6875 -349.3125 C 484.632812 -332.601562 475.695312 -317.90625 463.875 -305.21875 C 452.0625 -292.539062 437.078125 -282.164062 418.921875 -274.09375 C 400.765625 -266.019531 379.582031 -260.546875 355.375 -257.671875 L 355.375 -247.296875 C 375.550781 -244.410156 393.421875 -238.929688 408.984375 -230.859375 C 424.546875 -222.796875 438.234375 -210.691406 450.046875 -194.546875 C 461.867188 -178.410156 471.816406 -156.503906 479.890625 -128.828125 L 516.1875 0 L 430.59375 0 L 401.203125 -115 C 395.429688 -139.78125 386.0625 -159.519531 373.09375 -174.21875 C 360.125 -188.925781 344.847656 -199.59375 327.265625 -206.21875 C 309.691406 -212.84375 290.238281 -216.15625 268.90625 -216.15625 L 151.3125 -216.15625 L 151.3125 0 Z M 151.3125 -281.015625 L 246.421875 -281.015625 C 257.953125 -281.015625 271.210938 -281.445312 286.203125 -282.3125 C 301.191406 -283.175781 316.46875 -285.191406 332.03125 -288.359375 C 347.59375 -291.535156 361.859375 -297.15625 374.828125 -305.21875 C 387.796875 -313.289062 398.316406 -324.390625 406.390625 -338.515625 C 414.460938 -352.640625 418.5 -370.648438 418.5 -392.546875 C 418.5 -415.035156 414.460938 -433.335938 406.390625 -447.453125 C 398.316406 -461.578125 387.9375 -472.53125 375.25 -480.3125 C 362.570312 -488.09375 349.023438 -493.710938 334.609375 -497.171875 C 320.203125 -500.628906 306.515625 -502.789062 293.546875 -503.65625 C 280.578125 -504.519531 269.484375 -504.953125 260.265625 -504.953125 L 151.3125 -504.953125 Z M 151.3125 -281.015625 "/></g></g></g></svg>