<svg xmlns="http://www.w3.org/2000/svg" xmlns:xlink="http://www.w3.org/1999/xlink" width="2000" zoomAndPan="magnify" viewBox="0 0 1500 1499.999933" height="2000" preserveAspectRatio="xMidYMid meet" version="1.0"><defs><g/><clipPath id="97a15c3486"><path d="M 47 68 L 742 68 L 742 1167 L 47 1167 Z M 47 68 " clip-rule="nonzero"/></clipPath><clipPath id="336abd9982"><path d="M 366.832031 68.328125 L 741.902344 1043.4375 L 422.269531 1166.378906 L 47.203125 191.273438 Z M 366.832031 68.328125 " clip-rule="nonzero"/></clipPath><clipPath id="059411a342"><path d="M 0.0390625 0.160156 L 695 0.160156 L 695 1098.398438 L 0.0390625 1098.398438 Z M 0.0390625 0.160156 " clip-rule="nonzero"/></clipPath><clipPath id="cc040324aa"><path d="M 319.832031 0.328125 L 694.902344 975.4375 L 375.269531 1098.378906 L 0.203125 123.273438 Z M 319.832031 0.328125 " clip-rule="nonzero"/></clipPath><clipPath id="ebc318131e"><rect x="0" width="695" y="0" height="1099"/></clipPath></defs><rect x="-150" width="1800" fill="#ffffff" y="-149.999993" height="1799.99992" fill-opacity="1"/><rect x="-150" width="1800" fill="#ffffff" y="-149.999993" height="1799.99992" fill-opacity="1"/><g fill="#000000" fill-opacity="1"><g transform="translate(635.626037, 1008.543647)"><g><path d="M 35.765625 -602.953125 C 47.691406 -602.390625 63.304688 -601.820312 82.609375 -601.25 C 101.910156 -600.6875 120.929688 -600.40625 139.671875 -600.40625 C 166.359375 -600.40625 191.90625 -600.6875 216.3125 -601.25 C 240.726562 -601.820312 258.046875 -602.109375 268.265625 -602.109375 C 314.253906 -602.109375 352.4375 -595.578125 382.8125 -582.515625 C 413.195312 -569.453125 435.910156 -551.707031 450.953125 -529.28125 C 465.992188 -506.863281 473.515625 -481.75 473.515625 -453.9375 C 473.515625 -436.90625 470.109375 -418.734375 463.296875 -399.421875 C 456.484375 -380.117188 444.703125 -361.953125 427.953125 -344.921875 C 411.203125 -327.890625 388.347656 -313.835938 359.390625 -302.765625 C 330.441406 -291.691406 293.820312 -286.15625 249.53125 -286.15625 L 167.78125 -286.15625 L 167.78125 -303.1875 L 241.015625 -303.1875 C 281.328125 -303.1875 312.128906 -309.570312 333.421875 -322.34375 C 354.710938 -335.125 369.191406 -352.160156 376.859375 -373.453125 C 384.523438 -394.742188 388.359375 -418.445312 388.359375 -444.5625 C 388.359375 -489.414062 377.710938 -524.1875 356.421875 -548.875 C 335.128906 -573.570312 298.648438 -585.921875 246.984375 -585.921875 C 220.859375 -585.921875 203.820312 -581.09375 195.875 -571.4375 C 187.925781 -561.789062 183.953125 -542.207031 183.953125 -512.6875 L 183.953125 -90.28125 C 183.953125 -69.832031 185.65625 -54.5 189.0625 -44.28125 C 192.46875 -34.0625 199.140625 -27.25 209.078125 -23.84375 C 219.015625 -20.4375 233.632812 -18.164062 252.9375 -17.03125 L 252.9375 0 C 239.882812 -1.132812 223.5625 -1.84375 203.96875 -2.125 C 184.382812 -2.414062 164.65625 -2.5625 144.78125 -2.5625 C 122.632812 -2.5625 101.910156 -2.414062 82.609375 -2.125 C 63.304688 -1.84375 47.691406 -1.132812 35.765625 0 L 35.765625 -17.03125 C 55.066406 -18.164062 69.6875 -20.4375 79.625 -23.84375 C 89.5625 -27.25 96.234375 -34.0625 99.640625 -44.28125 C 103.046875 -54.5 104.75 -69.832031 104.75 -90.28125 L 104.75 -512.6875 C 104.75 -533.6875 103.046875 -549.15625 99.640625 -559.09375 C 96.234375 -569.03125 89.5625 -575.84375 79.625 -579.53125 C 69.6875 -583.226562 55.066406 -585.359375 35.765625 -585.921875 Z M 171.1875 -300.640625 C 201.84375 -299.503906 225.96875 -298.222656 243.5625 -296.796875 C 261.164062 -295.378906 275.503906 -294.101562 286.578125 -292.96875 C 297.648438 -291.832031 308.296875 -290.414062 318.515625 -288.71875 C 356.554688 -282.46875 383.953125 -270.96875 400.703125 -254.21875 C 417.453125 -237.46875 429.800781 -211.492188 437.75 -176.296875 L 459.046875 -89.421875 C 464.722656 -64.441406 470.539062 -46.414062 476.5 -35.34375 C 482.457031 -24.269531 491.6875 -19.019531 504.1875 -19.59375 C 513.820312 -20.15625 521.90625 -23.273438 528.4375 -28.953125 C 534.96875 -34.628906 541.921875 -42.296875 549.296875 -51.953125 L 562.078125 -42.578125 C 550.148438 -24.984375 537.800781 -11.5 525.03125 -2.125 C 512.269531 7.238281 494.25 11.921875 470.96875 11.921875 C 449.957031 11.921875 431.503906 5.675781 415.609375 -6.8125 C 399.710938 -19.300781 387.789062 -43.71875 379.84375 -80.0625 L 361.109375 -165.21875 C 355.992188 -189.632812 350.171875 -210.785156 343.640625 -228.671875 C 337.109375 -246.554688 328.023438 -260.609375 316.390625 -270.828125 C 304.753906 -281.046875 287.578125 -286.15625 264.859375 -286.15625 L 172.890625 -286.15625 Z M 171.1875 -300.640625 "/></g></g></g><g clip-path="url(#97a15c3486)"><g clip-path="url(#336abd9982)"><g transform="matrix(1, 0, 0, 1, 47, 68)"><g clip-path="url(#ebc318131e)"><g clip-path="url(#059411a342)"><g clip-path="url(#cc040324aa)"><path fill="#ffffff" d="M 319.832031 0.328125 L 694.90625 975.449219 L 375.277344 1098.390625 L 0.203125 123.273438 Z M 319.832031 0.328125 " fill-opacity="1" fill-rule="nonzero"/></g></g></g></g></g></g><g fill="#ffffff" fill-opacity="1"><g transform="translate(330.428003, 1008.543647)"><g><path d="M 285.007812 -611.082031 L 492.8125 -75.390625 C 500.488281 -55.941406 508.785156 -43.285156 517.695312 -37.425781 C 526.90625 -31.363281 535.113281 -28.109375 542.316406 -27.65625 L 552.296875 -27.035156 L 552.296875 11.761719 L 540.59375 10.59375 C 529.527344 9.488281 515.910156 8.792969 499.738281 8.515625 C 483.332031 8.230469 466.929688 8.089844 450.527344 8.089844 C 428.433594 8.089844 407.761719 8.230469 388.511719 8.515625 C 369.492188 8.796875 354.164062 9.488281 342.523438 10.597656 L 330.867188 11.707031 L 330.867188 -27.269531 L 341.097656 -27.671875 C 367.066406 -28.6875 383.023438 -32.488281 388.972656 -39.074219 C 390.863281 -41.167969 391.527344 -45.390625 390.953125 -51.738281 C 390.191406 -60.167969 387.15625 -71.152344 381.851562 -84.683594 L 220.699219 -515.28125 L 271.261719 -556.363281 L 108.726562 -134.144531 C 99.96875 -112.246094 94.792969 -93.976562 93.195312 -79.328125 C 91.726562 -65.882812 92.894531 -55.585938 96.695312 -48.429688 C 100.203125 -41.824219 106.449219 -36.988281 115.433594 -33.921875 C 126.066406 -30.289062 139.65625 -28.207031 156.195312 -27.671875 L 166.5 -27.339844 L 166.5 11.433594 L 155.09375 10.617188 C 139.390625 9.496094 122.980469 8.796875 105.855469 8.515625 C 88.597656 8.230469 72.617188 8.089844 57.914062 8.089844 C 43.820312 8.089844 31.855469 8.230469 22.019531 8.511719 C 12.453125 8.785156 3.597656 9.464844 -4.554688 10.550781 L -16.605469 12.160156 L -16.605469 -25.34375 L -8.542969 -27.359375 C 1.136719 -29.78125 11.292969 -35.671875 21.917969 -45.035156 C 32.519531 -54.371094 42.332031 -70.992188 51.359375 -94.890625 L 254.167969 -617.875 L 282.375 -617.875 Z M 265.160156 -603.378906 L 275.085938 -607.230469 L 275.085938 -596.585938 L 261.457031 -596.585938 L 261.457031 -607.230469 L 271.382812 -603.382812 L 71.277344 -87.363281 C 61.003906 -60.164062 49.242188 -40.730469 35.992188 -29.058594 C 22.773438 -17.414062 9.652344 -9.960938 -3.378906 -6.707031 L -5.960938 -17.03125 L 4.683594 -17.03125 L 4.683594 0 L -5.960938 0 L -7.367188 -10.550781 C 1.515625 -11.738281 11.109375 -12.476562 21.414062 -12.769531 C 31.449219 -13.058594 43.617188 -13.199219 57.914062 -13.199219 C 72.734375 -13.199219 88.832031 -13.058594 106.207031 -12.773438 C 123.71875 -12.484375 140.519531 -11.769531 156.613281 -10.617188 L 155.851562 0 L 145.207031 0 L 145.207031 -17.03125 L 155.851562 -17.03125 L 155.507812 -6.394531 C 136.847656 -6.996094 121.195312 -9.453125 108.550781 -13.773438 C 94.257812 -18.652344 84.035156 -26.875 77.894531 -38.441406 C 72.042969 -49.453125 70.085938 -63.851562 72.027344 -81.636719 C 73.835938 -98.214844 79.445312 -118.265625 88.855469 -141.792969 L 237.046875 -526.742188 L 246.980469 -522.917969 L 253.691406 -514.652344 L 240.066406 -503.582031 L 233.351562 -511.84375 L 243.324219 -515.574219 L 401.671875 -92.457031 C 414.632812 -59.414062 415.664062 -36.859375 404.769531 -24.800781 C 394.820312 -13.785156 373.871094 -7.648438 341.929688 -6.394531 L 341.511719 -17.03125 L 352.160156 -17.03125 L 352.160156 0 L 341.511719 0 L 340.503906 -10.597656 C 352.710938 -11.761719 368.609375 -12.484375 388.199219 -12.773438 C 407.554688 -13.058594 428.332031 -13.199219 450.527344 -13.199219 C 467.050781 -13.199219 483.578125 -13.058594 500.105469 -12.773438 C 516.863281 -12.484375 531.066406 -11.757812 542.710938 -10.59375 L 541.652344 0 L 531.007812 0 L 531.007812 -17.03125 L 541.652344 -17.03125 L 540.988281 -6.40625 C 530.023438 -7.09375 518.355469 -11.503906 505.992188 -19.636719 C 493.328125 -27.96875 482.320312 -43.984375 472.964844 -67.6875 Z M 389.632812 -245.277344 L 389.632812 -217.597656 L 107.96875 -217.597656 L 127.128906 -255.921875 L 389.632812 -255.921875 Z M 368.339844 -245.277344 L 378.988281 -245.277344 L 378.988281 -234.632812 L 133.710938 -234.632812 L 133.710938 -245.277344 L 143.230469 -240.515625 L 134.714844 -223.484375 L 125.191406 -228.242188 L 125.191406 -238.890625 L 378.988281 -238.890625 L 378.988281 -228.242188 L 368.339844 -228.242188 Z M 368.339844 -245.277344 "/></g></g></g><g fill="#000000" fill-opacity="1"><g transform="translate(330.428003, 1008.543647)"><g><path d="M 275.078125 -607.21875 L 482.890625 -71.546875 C 491.398438 -49.960938 501.046875 -35.625 511.828125 -28.53125 C 522.617188 -21.4375 532.554688 -17.601562 541.640625 -17.03125 L 541.640625 0 C 530.285156 -1.132812 516.375 -1.84375 499.90625 -2.125 C 483.445312 -2.414062 466.988281 -2.5625 450.53125 -2.5625 C 428.382812 -2.5625 407.660156 -2.414062 388.359375 -2.125 C 369.054688 -1.84375 353.441406 -1.132812 341.515625 0 L 341.515625 -17.03125 C 370.472656 -18.164062 388.925781 -23.132812 396.875 -31.9375 C 404.820312 -40.738281 403.117188 -59.617188 391.765625 -88.578125 L 233.359375 -511.84375 L 246.984375 -522.90625 L 98.796875 -137.96875 C 89.710938 -115.257812 84.316406 -96.097656 82.609375 -80.484375 C 80.910156 -64.867188 82.472656 -52.519531 87.296875 -43.4375 C 92.117188 -34.351562 100.347656 -27.820312 111.984375 -23.84375 C 123.628906 -19.875 138.253906 -17.601562 155.859375 -17.03125 L 155.859375 0 C 139.953125 -1.132812 123.34375 -1.84375 106.03125 -2.125 C 88.71875 -2.414062 72.675781 -2.5625 57.90625 -2.5625 C 43.71875 -2.5625 31.65625 -2.414062 21.71875 -2.125 C 11.78125 -1.84375 2.550781 -1.132812 -5.96875 0 L -5.96875 -17.03125 C 5.394531 -19.875 17.035156 -26.546875 28.953125 -37.046875 C 40.878906 -47.546875 51.664062 -65.570312 61.3125 -91.125 L 261.453125 -607.21875 C 263.722656 -607.21875 265.992188 -607.21875 268.265625 -607.21875 C 270.535156 -607.21875 272.804688 -607.21875 275.078125 -607.21875 Z M 378.984375 -245.28125 L 378.984375 -228.25 L 125.1875 -228.25 L 133.703125 -245.28125 Z M 378.984375 -245.28125 "/></g></g></g></svg>